<svg width="156" height="159" viewBox="0 0 156 159" fill="none" xmlns="http://www.w3.org/2000/svg">
<g clip-path="url(#clip0)">
<path d="M113.965 22.6626L105.746 56.21C105.155 58.4907 105.251 60.5663 107.037 60.5663C109.608 60.5663 114.653 54.5326 116.837 50.7676L118.913 52.5535C115.147 59.5767 109.318 65.8156 101.799 65.8156C97.0443 65.8156 95.8616 61.8575 97.2495 56.4151L105.565 22.6747H97.8409L98.8305 19.0182H106.446L108.618 10.5831L117.127 5.6355L118.213 6.32334L114.846 18.982H131.102L130.016 22.6385H113.965V22.6626Z" fill="#FCF1E0"/>
<path d="M22.8459 0H47.092C58.6659 0 69.2622 3.55988 69.2622 17.6063C69.2622 25.2209 66.2933 31.9545 60.3555 35.6109C55.3107 38.7725 48.8781 39.7621 42.7472 39.7621C39.187 39.7621 34.3353 39.2673 32.3561 38.5795L28.2045 56.7892C27.6131 59.7578 28.0114 61.1455 30.2803 61.3386L36.7129 61.8333L36.1215 64.6088H8.89453L9.58245 61.8333L14.6272 61.3386C16.9081 61.0369 17.7892 59.9508 18.4891 56.7892L29.7734 7.80761C30.4613 4.74249 29.8699 3.45128 27.6976 3.2582L22.2546 2.7755L22.8459 0ZM33.925 32.5578C33.2371 35.4299 37.3887 36.4194 41.8421 36.4194C52.8246 36.4194 58.9555 29.7944 58.9555 16.4358C58.9555 8.12136 54.2004 3.28233 45.1006 3.28233C40.5507 3.28233 40.249 3.7771 39.6576 6.64914L33.925 32.5578Z" fill="#FCF1E0"/>
<path d="M95.391 52.2397C88.9584 62.6297 80.5465 65.7914 73.1243 65.7914C67.283 65.7914 59.366 63.4141 59.366 50.4537C59.366 42.634 62.2383 34.1265 67.0899 28.0928C72.2312 21.7574 78.7724 17.7993 87.1723 17.7993C94.8962 17.7993 98.2513 22.2522 98.2513 27.2964C98.2513 40.0637 78.5552 43.7201 68.9606 44.8062C68.864 45.494 68.7675 47.7747 68.7675 48.2695C68.7675 55.4979 70.7468 61.0368 77.1794 61.0368C84.2034 61.0368 89.5498 55.2927 93.1101 50.3451L95.391 52.2397ZM89.8515 26.6206C89.8515 23.4589 88.0653 21.0816 84.8068 21.0816C77.4811 21.0816 70.8554 30.4822 69.2744 41.6566C81.2345 39.9671 89.8515 35.5263 89.8515 26.6206Z" fill="#FCF1E0"/>
<path d="M15.448 111.623L16.0394 108.848L21.1806 108.353C23.4616 108.051 24.3426 107.062 25.0426 103.804L36.2303 54.8221C37.0268 51.757 36.4234 50.3692 34.251 50.2727L28.8081 49.7779L29.3994 47.0024H56.1195L55.4316 49.7779L49.8921 50.1762C47.5145 50.2727 46.6215 51.757 45.9335 54.8221L35.5424 100.34C33.8648 107.665 34.4562 108.353 45.9335 108.353C56.4212 108.353 60.778 106.374 65.7262 94.7049H68.5986L63.4452 111.623H15.448Z" fill="#FCF1E0"/>
<path d="M112.227 65.8156L102.33 102.621C101.534 105.59 101.534 107.569 103.223 107.569C105.698 107.569 109.849 101.04 111.539 97.6735L113.916 99.1578C110.646 106.278 105.504 112.806 98.3839 112.806C93.2426 112.806 92.0478 108.848 94.1237 102.114L96.996 92.5207H96.7908C91.4444 101.921 82.7429 112.806 72.75 112.806C66.0157 112.806 64.145 107.955 64.145 101.523C64.145 89.2504 74.3431 64.814 96.3081 64.814C99.4701 64.814 102.053 65.8035 103.73 66.9861L104.032 65.8035H112.227V65.8156ZM97.0805 68.2894C82.6343 68.2894 73.631 91.0485 73.631 101.233C73.631 104.89 74.5241 107.569 77.493 107.569C85.9049 107.569 97.6839 86.6922 100.544 77.4847C101.341 74.8178 102.125 72.344 102.717 70.1598C101.341 68.8807 99.2649 68.2894 97.0805 68.2894Z" fill="#FCF1E0"/>
<path d="M122.558 83.2289H122.859C129.787 71.065 138.887 64.8261 146.019 64.8261C152.947 64.8261 156.012 69.7738 156.012 76.7005C156.012 80.8517 154.829 89.2626 150.267 97.4805C145.621 105.59 137.402 112.818 126.42 112.818C121.073 112.818 116.33 110.151 114.641 106.29L111.672 111.636H108.304L122.159 51.5761C122.956 47.9197 122.654 47.2198 120.277 47.0267L115.027 46.3389L115.522 44.1668L132.442 41.9946L132.937 42.3929L122.558 83.2289ZM141.855 70.0634C136.111 70.0634 129.292 77.7865 125.128 85.1959C122.159 90.6383 119.987 96.9737 119.987 101.427C119.987 106.073 122.859 109.536 127.506 109.536C140.962 109.536 146.598 84.3029 146.598 77.3762C146.598 72.2476 145.114 70.0634 141.855 70.0634Z" fill="#FCF1E0"/>
<path d="M53.7299 139.897L48.5886 155.03C42.5542 157.998 36.0251 158.988 29.2907 158.988C5.9378 159 0 144.447 0 131.692C0 125.26 1.3879 116.354 6.52917 108.148C11.9721 99.2424 22.0616 91.1331 39.5853 91.1331C46.1145 91.1331 54.9247 92.8104 60.3676 96.1772L56.9039 110.32H54.0316C54.5264 100.22 50.5679 94.4878 38.9819 94.4878C18.6944 94.4878 10.8739 117.15 10.8739 134.262C10.8739 148.514 18.2961 155.633 28.9769 155.633C40.4543 155.633 45.7042 149.298 50.8454 139.897H53.7299Z" fill="#FCF1E0"/>
<path d="M95.0048 127.142C95.0048 132.186 93.4238 139.909 89.1636 146.631C84.8068 153.558 78.2776 158.602 67.983 158.602C56.1074 158.602 50.761 151.482 50.761 141.587C50.761 133.079 56.3971 110.622 78.2655 110.622C85.7964 110.61 95.0048 114.278 95.0048 127.142ZM59.9694 145.436C59.9694 151.868 62.9383 155.235 68.1882 155.235C80.7517 155.235 85.6999 130.4 85.6999 123.775C85.6999 118.14 83.7206 113.977 77.9759 113.977C66.0038 113.977 59.9694 135.444 59.9694 145.436Z" fill="#FCF1E0"/>
<path d="M91.3479 152.761C91.3479 148.996 93.7254 145.931 97.5874 145.931C101.244 145.931 102.729 148.405 102.729 151.965C102.729 155.621 100.351 158.493 96.2961 158.493C92.7358 158.505 91.3479 156.128 91.3479 152.761Z" fill="#FCF1E0"/>
</g>
<defs>
<clipPath id="clip0">
<rect width="156" height="159" fill="white"/>
</clipPath>
</defs>
</svg>
